<svg width="256" height="256" viewBox="0 0 256 256" xmlns="http://www.w3.org/2000/svg">
  <!-- Background Circle with Gradient -->
  <defs>
    <linearGradient id="bgGradient" x1="0%" y1="0%" x2="100%" y2="100%">
      <stop offset="0%" style="stop-color:#3b82f6;stop-opacity:1" />
      <stop offset="100%" style="stop-color:#8b5cf6;stop-opacity:1" />
    </linearGradient>
    <linearGradient id="frameGradient" x1="0%" y1="0%" x2="100%" y2="100%">
      <stop offset="0%" style="stop-color:#ffffff;stop-opacity:0.9" />
      <stop offset="100%" style="stop-color:#f1f5f9;stop-opacity:0.8" />
    </linearGradient>
  </defs>
  
  <!-- Background -->
  <circle cx="128" cy="128" r="120" fill="url(#bgGradient)" />
  
  <!-- Photo Frame -->
  <rect x="60" y="80" width="136" height="96" rx="8" ry="8" fill="url(#frameGradient)" stroke="#ffffff" stroke-width="3"/>
  
  <!-- Inner Photo Area -->
  <rect x="70" y="90" width="116" height="76" rx="4" ry="4" fill="#e2e8f0"/>
  
  <!-- Face Circle (representing face detection) -->
  <circle cx="128" cy="128" r="20" fill="#3b82f6" opacity="0.7"/>
  <circle cx="128" cy="128" r="12" fill="#ffffff" opacity="0.9"/>
  
  <!-- AI Sparkles -->
  <g fill="#ffffff" opacity="0.9">
    <!-- Large sparkle top-left -->
    <path d="M80 60 L85 70 L95 65 L90 75 L100 70 L90 80 L95 90 L85 85 L80 95 L75 85 L65 90 L70 80 L60 85 L70 75 L65 65 L75 70 Z"/>
    
    <!-- Medium sparkle top-right -->
    <path d="M180 70 L183 76 L189 73 L186 79 L192 76 L186 82 L189 88 L183 85 L180 91 L177 85 L171 88 L174 82 L168 85 L174 79 L171 73 L177 76 Z"/>
    
    <!-- Small sparkle bottom-left -->
    <path d="M70 180 L72 184 L76 182 L74 186 L78 184 L74 188 L76 192 L72 190 L70 194 L68 190 L64 192 L66 188 L62 190 L66 186 L64 182 L68 184 Z"/>
    
    <!-- Tiny sparkles -->
    <circle cx="200" cy="180" r="3"/>
    <circle cx="50" cy="170" r="2"/>
    <circle cx="190" cy="50" r="2"/>
  </g>
</svg>